<?xml version="1.0" encoding="UTF-8"?>
<!DOCTYPE svg PUBLIC "-//W3C//DTD SVG 1.1//EN" "http://www.w3.org/Graphics/SVG/1.1/DTD/svg11.dtd">
<!-- Creator: CorelDRAW 2021 (64-Bit Evaluation Version) -->
<svg xmlns="http://www.w3.org/2000/svg" xml:space="preserve" width="144.466mm" height="129.42mm" version="1.1" style="shape-rendering:geometricPrecision; text-rendering:geometricPrecision; image-rendering:optimizeQuality; fill-rule:evenodd; clip-rule:evenodd"
viewBox="0 0 1106.61 991.35"
 xmlns:xlink="http://www.w3.org/1999/xlink"
 xmlns:xodm="http://www.corel.com/coreldraw/odm/2003">
 <defs>
  <style type="text/css">
   <![CDATA[
    .fil0 {fill:#515151}
    .fil2 {fill:#7A7A79}
    .fil1 {fill:#D63447}
   ]]>
  </style>
 </defs>
 <g id="Layer_x0020_1">
  <metadata id="CorelCorpID_0Corel-Layer"/>
  <g id="_1942177571344">
   <path class="fil0" d="M935.61 384.78c20,6.08 34.25,18.49 44.29,35.86 9.56,30.94 14.51,27.47 14.9,69.44l0.12 251.49c-0.02,64.84 -4.81,99.66 -46.28,124.43 -41.33,24.69 -91.74,17.07 -146.98,17.09 -111.23,0.05 -222.45,-0.06 -333.68,-0.08 -56.37,-0.01 -112.75,0.05 -169.12,0.08 -50.76,0.03 -105.93,7.38 -142.89,-17.67 -14.49,-4.45 -7.56,1.8 -14.33,-11.11 -39.17,-39.73 -31.58,-72.21 -31.65,-135.6 -0.07,-56.37 -0.15,-112.75 -0.1,-169.12 0.06,-60.75 -8.37,-103.89 28.03,-142.74 35.05,-37.41 73.6,-31.12 138.08,-31.19 92.12,-0.1 612.43,-8.72 659.61,9.12zm-849.98 -74.87c-6.5,12 0.16,2.38 -6.71,10.41 -0.42,0.49 -6.39,5.71 -7.41,6.58 -12.07,10.33 -4.24,5.58 -18.31,11.93 -11.2,24.41 -42.64,50.98 -49.72,110.88 -5.54,46.94 -1.45,118.92 -1.45,168.45 -0,119.65 -16.33,212.87 43.55,289.6 63.67,81.59 130.21,81.44 253.27,81.28 105.78,-0.14 597.37,9.93 661.55,-10.89 76.59,-24.84 138.94,-98.18 142.7,-190.7 3.87,-95.14 5.77,-240.64 -0.99,-334.17 -5.27,-72.93 -83.05,-172.98 -158.65,-175.91 -27.52,-2.03 -49.85,-5.86 -82.39,-5.86 -49.68,-0.01 -234.23,3.61 -258.1,-3.3 -3.05,-24.71 -1.08,-58.46 -1.13,-84.29 -0.1,-51.99 -7.92,-74.4 11.94,-77.67 37.72,-0.42 62.73,-36.55 47.59,-74.32 -15.23,-38 -56.88,-31.46 -106.56,-31.47 -48.68,-0 -90.19,-6.81 -105.98,32.06 -8.08,19.88 -4.18,39.05 6.88,53.58 17.1,22.46 23.98,12.73 42.51,24.68 1.51,31.3 8.38,134.63 -3.94,154.16 -19.84,12.36 -184.7,4.28 -222.87,4.28 -99.28,-0 -112.98,-1.84 -185.79,40.69z"/>
   <path class="fil1" d="M711.23 586.37c-76.33,39.99 -10.01,134.93 49.29,104.6 66.84,-34.2 20.58,-141.21 -49.29,-104.6z"/>
   <path class="fil1" d="M369.99 690.09c35.4,5.34 58.7,-1.3 73.01,-23.68 20.51,-32.07 0.05,-57.12 -14.09,-76.38 -79.39,-46.41 -124.25,75.37 -58.92,100.06z"/>
   <path class="fil1" d="M369.99 690.09c5.32,4.57 -1.31,2.7 9.03,7.08 25.33,10.73 52.02,-2.02 67.77,-22.24 18.8,-24.14 15.87,-75.63 -17.87,-84.9 14.14,19.26 34.6,44.31 14.09,76.38 -14.31,22.38 -37.61,29.02 -73.01,23.68z"/>
   <path class="fil2" d="M155.96 865.43l-14.33 -11.11c6.77,12.91 -0.16,6.66 14.33,11.11z"/>
  </g>
 </g>
</svg>
