<?xml version="1.0" encoding="UTF-8"?>
<!DOCTYPE svg PUBLIC "-//W3C//DTD SVG 1.1//EN" "http://www.w3.org/Graphics/SVG/1.1/DTD/svg11.dtd">
<!-- Creator: CorelDRAW 2021 (64-Bit Evaluation Version) -->
<svg xmlns="http://www.w3.org/2000/svg" xml:space="preserve" width="135.467mm" height="128.058mm" version="1.1" style="shape-rendering:geometricPrecision; text-rendering:geometricPrecision; image-rendering:optimizeQuality; fill-rule:evenodd; clip-rule:evenodd"
viewBox="0 0 1545.92 1461.37"
 xmlns:xlink="http://www.w3.org/1999/xlink"
 xmlns:xodm="http://www.corel.com/coreldraw/odm/2003">
 <defs>
  <style type="text/css">
   <![CDATA[
    .fil2 {fill:#D63447}
    .fil1 {fill:#515151;fill-rule:nonzero}
    .fil0 {fill:#6F6F6F;fill-rule:nonzero}
   ]]>
  </style>
 </defs>
 <g id="Layer_x0020_1">
  <metadata id="CorelCorpID_0Corel-Layer"/>
  <g id="_1939403451344">
   <path class="fil0" d="M247.59 857.62l0 -495.42c0,-166.69 134.8,-301.81 301.08,-301.81l-183.32 0c-166.76,0 -301.94,135.18 -301.94,301.94l0 495.18c0,166.75 135.18,301.94 301.94,301.94l183.32 0c-166.28,0 -301.08,-135.13 -301.08,-301.81z"/>
   <path class="fil1" d="M1183.59 1219.82l-821.33 0c-199.75,0 -362.26,-162.51 -362.26,-362.26l0 -495.24c0,-199.79 162.54,-362.32 362.32,-362.32l821.27 -0c199.79,0 362.32,162.54 362.32,362.32l0 495.18c0,199.79 -162.54,362.32 -362.32,362.32zm-821.27 -1099.05c-133.19,0 -241.55,108.36 -241.55,241.55l0 495.24c0,133.15 108.33,241.49 241.49,241.49l821.33 0c133.19,0 241.55,-108.36 241.55,-241.55l0 -495.18c0,-133.19 -108.36,-241.55 -241.55,-241.55l-821.27 0zm760.88 1280.21c0,-33.35 -27.04,-60.39 -60.39,-60.39l-579.72 0c-33.35,0 -60.39,27.04 -60.39,60.39 0,33.35 27.04,60.39 60.39,60.39l579.72 0c33.35,0 60.39,-27.04 60.39,-60.39z"/>
   <g>
    <path class="fil2" d="M595.89 422.02c-11.86,42.68 -21.12,91.07 -32.92,134.79 -26.47,98.05 -67.95,227.38 -101.28,324.88 -6.66,19.5 -17.18,44.48 -20.88,63.5 26.03,-24.02 51.84,-51.41 77.34,-77.26 26.78,-27.16 51.94,-52.12 78.84,-79.07 26.41,-26.46 51.04,-51.35 77.53,-77.88 25.12,-25.16 52.81,-56.47 79.48,-78.77 -4.1,-27.84 -3.59,-44.1 16.06,-58.8 17.49,-13.1 43.61,-11.4 59.62,2.84 40.78,36.28 -5.39,101.43 -47.9,78.9l-315.96 315.02 125.55 -41.54c75.81,-25.36 183.91,-59.73 260.85,-80.07 44.32,-11.71 92.82,-21.19 136.48,-33.51 1.66,-86.91 0.7,-172.81 44.35,-249.38 5.1,-8.94 12.12,-17.22 16.14,-26.21l-177.61 -177.86c-8.44,4.1 -16.06,10.46 -24.66,15.42 -73.36,42.32 -166.58,46.49 -251.04,45.01z"/>
    <path class="fil2" d="M880.82 320.76l208.84 208.45 132.15 -86.65 -109.59 -111.27c-7.85,-7.26 -10.13,-11.19 -15.99,-16.59 -7.23,-6.67 -9.42,-6.97 -15.73,-14.34l-111.25 -110.65 -88.43 131.04z"/>
   </g>
  </g>
 </g>
</svg>
